<svg width="1024" height="1024" viewBox="0 0 1024 1024" fill="none" xmlns="http://www.w3.org/2000/svg">
<rect width="1024" height="1024" fill="#161616"/>
<path d="M372 493.5C365 486.5 361.5 478 361.5 468C361.5 458 365 449.5 372 442.5C379 435.167 386.833 431.5 395.5 431.5C404.5 431.5 412 433.833 418 438.5C424.333 442.833 428.833 448.5 431.5 455.5C431.833 455.833 432 456.167 432 456.5V457C436 465.667 438 477.667 438 493C438 508 437 520.833 435 531.5C433 542.167 429.333 553.5 424 565.5C418.667 577.5 412.167 588.333 404.5 598C396.833 607.333 386.5 615.167 373.5 621.5C360.833 627.5 346.667 630.5 331 630.5C304.333 630.5 284.333 620.833 271 601.5C255 620.833 233.167 630.5 205.5 630.5C184.167 630.5 166.667 623.833 153 610.5C139.667 597.167 133 581.833 133 564.5C133 547.167 136 525.833 142 500.5C148.333 474.833 151.833 455.167 152.5 441.5C147.167 441.833 142 443.833 137 447.5C132 450.833 128.333 454.167 126 457.5L122.5 462.5L115 456.5C116 454.5 117.5 452.167 119.5 449.5C121.5 446.833 126.5 443.167 134.5 438.5C142.833 433.833 153.167 431.5 165.5 431.5C177.833 431.5 187.667 435.5 195 443.5C202.667 451.5 206.5 461.667 206.5 474C206.5 486.333 203.167 505.5 196.5 531.5C189.833 557.167 186.5 575.333 186.5 586C186.5 596.333 188.833 604.5 193.5 610.5C198.5 616.5 205.5 619.5 214.5 619.5C233.833 619.5 250.333 609.5 264 589.5C260.333 580.167 258.5 569.333 258.5 557C258.5 544.667 261.5 525.833 267.5 500.5C273.833 474.833 277.333 455.167 278 441.5C272.667 441.833 267.5 443.833 262.5 447.5C257.5 450.833 253.833 454.167 251.5 457.5L248 462.5L240.5 456.5C241.5 454.5 243 452.167 245 449.5C247 446.833 252 443.167 260 438.5C268.333 433.833 278.667 431.5 291 431.5C303.333 431.5 313.167 435.5 320.5 443.5C328.167 451.5 332 461.667 332 474C332 486.333 328.667 505.5 322 531.5C315.333 557.167 312 575.333 312 586C312 596.333 314.333 604.5 319 610.5C324 616.5 331 619.5 340 619.5C362.333 619.5 382.333 607.5 400 583.5C417.667 559.167 426.5 531.833 426.5 501.5C426.5 499.167 426.167 495.667 425.5 491C418.5 499.667 409.5 504 398.5 504C387.833 504 379 500.5 372 493.5ZM554.727 612.5C544.727 624.5 532.227 630.5 517.227 630.5C502.227 630.5 490.393 626.667 481.727 619C473.393 611.333 469.227 601.333 469.227 589C469.227 584.667 471.893 566.5 477.227 534.5L493.727 445H472.727L473.727 436H495.227C519.893 436 538.06 435 549.727 433L556.727 431.5L522.227 620.5C532.227 619.5 540.56 614.833 547.227 606.5L554.727 612.5ZM510.727 383.5C503.727 376.5 500.227 368 500.227 358C500.227 348 503.727 339.5 510.727 332.5C517.727 325.167 526.227 321.5 536.227 321.5C546.227 321.5 554.727 325.167 561.727 332.5C569.06 339.5 572.727 348 572.727 358C572.727 368 569.06 376.5 561.727 383.5C554.727 390.5 546.227 394 536.227 394C526.227 394 517.727 390.5 510.727 383.5ZM630.32 617.5C663.32 617.5 679.82 593.167 679.82 544.5C679.82 532.5 677.987 518.333 674.32 502C670.987 485.667 668.987 475.5 668.32 471.5C647.987 492.5 625.154 505.167 599.82 509.5V497.5C623.82 492.167 646.32 478.5 667.32 456.5V454.5C667.32 446.5 668.487 438.667 670.82 431C673.154 423.333 675.487 417.667 677.82 414L681.32 408.5H693.32C693.32 423.167 695.654 436.667 700.32 449C704.987 461 710.154 470.833 715.82 478.5C721.487 485.833 726.654 495.667 731.32 508C735.987 520 738.32 533.333 738.32 548C738.32 571.667 729.32 591.333 711.32 607C693.654 622.667 672.32 630.5 647.32 630.5C622.32 630.5 603.32 624.833 590.32 613.5C577.654 602.167 571.32 589.167 571.32 574.5C571.32 559.5 574.987 548.833 582.32 542.5C589.654 535.833 598.32 532.5 608.32 532.5C618.32 532.5 626.487 535.833 632.82 542.5C639.487 548.833 642.82 557.167 642.82 567.5C642.82 577.5 639.654 586 633.32 593C626.987 600 618.82 603.5 608.82 603.5C604.487 603.5 599.987 602.833 595.32 601.5C602.654 612.167 614.32 617.5 630.32 617.5ZM875.402 431.5C917.736 431.5 938.902 448.333 938.902 482C938.902 503 928.902 519 908.902 530C889.236 540.667 861.069 546.167 824.402 546.5C823.736 558.5 823.402 568 823.402 575C823.402 590 826.736 601.167 833.402 608.5C840.402 615.5 849.069 619 859.402 619C869.736 619 879.069 617 887.402 613C896.069 609 902.902 604.333 907.902 599C912.902 593.333 917.236 587.5 920.902 581.5C927.569 570.5 930.902 563.5 930.902 560.5L939.902 564.5C938.902 569.833 935.902 577 930.902 586C925.902 594.667 920.402 601.833 914.402 607.5C908.402 613.167 899.569 618.5 887.902 623.5C876.236 628.167 863.236 630.5 848.902 630.5C821.902 630.5 801.402 624.167 787.402 611.5C773.736 598.5 766.902 580.833 766.902 558.5C766.902 518.833 776.736 487.833 796.402 465.5C816.069 442.833 842.402 431.5 875.402 431.5ZM926.402 482C926.402 471 923.069 462 916.402 455C910.069 447.667 900.402 444 887.402 444C874.736 444 862.236 451.667 849.902 467C837.902 482.333 829.902 505 825.902 535C892.902 534.667 926.402 517 926.402 482Z" fill="#04BF8A"/>
</svg>
